<?xml version="1.0" encoding="utf-8"?>
<!-- Generator: Adobe Illustrator 19.0.0, SVG Export Plug-In . SVG Version: 6.00 Build 0)  -->
<svg version="1.1" xmlns="http://www.w3.org/2000/svg" xmlns:xlink="http://www.w3.org/1999/xlink" x="0px" y="0px"
	 viewBox="0 0 640 300" style="enable-background:new 0 0 640 300;" xml:space="preserve">
<style type="text/css">
	.st0{fill:none;}
	.st1{fill:none;stroke:#FFFFFF;stroke-width:2.88;}
	.st2{display:none;}
	.st3{display:inline;fill:#FCD06B;}
	.st4{fill:#FFFFFF;}
	.st5{fill:url(#XMLID_44_);}
	.st6{fill:url(#XMLID_45_);}
	.st7{fill:url(#XMLID_46_);}
	.st8{fill:url(#XMLID_47_);}
	.st9{fill:url(#XMLID_48_);}
</style>
<pattern  width="72" height="72" patternUnits="userSpaceOnUse" id="_x31_0_lpi_40_x25__2" viewBox="72.3 -72 72 72" style="overflow:visible;">
	<g>
		<polygon class="st0" points="72.3,-72 144.3,-72 144.3,0 72.3,0 		"/>
		<g>
			<line class="st1" x1="144" y1="-3.6" x2="216.5" y2="-3.6"/>
			<line class="st1" x1="144" y1="-18" x2="216.5" y2="-18"/>
			<line class="st1" x1="144" y1="-32.4" x2="216.5" y2="-32.4"/>
			<line class="st1" x1="144" y1="-46.8" x2="216.5" y2="-46.8"/>
			<line class="st1" x1="144" y1="-61.2" x2="216.5" y2="-61.2"/>
			<line class="st1" x1="144" y1="-10.8" x2="216.5" y2="-10.8"/>
			<line class="st1" x1="144" y1="-25.2" x2="216.5" y2="-25.2"/>
			<line class="st1" x1="144" y1="-39.6" x2="216.5" y2="-39.6"/>
			<line class="st1" x1="144" y1="-54" x2="216.5" y2="-54"/>
			<line class="st1" x1="144" y1="-68.4" x2="216.5" y2="-68.4"/>
		</g>
		<g>
			<line class="st1" x1="72" y1="-3.6" x2="144.5" y2="-3.6"/>
			<line class="st1" x1="72" y1="-18" x2="144.5" y2="-18"/>
			<line class="st1" x1="72" y1="-32.4" x2="144.5" y2="-32.4"/>
			<line class="st1" x1="72" y1="-46.8" x2="144.5" y2="-46.8"/>
			<line class="st1" x1="72" y1="-61.2" x2="144.5" y2="-61.2"/>
			<line class="st1" x1="72" y1="-10.8" x2="144.5" y2="-10.8"/>
			<line class="st1" x1="72" y1="-25.2" x2="144.5" y2="-25.2"/>
			<line class="st1" x1="72" y1="-39.6" x2="144.5" y2="-39.6"/>
			<line class="st1" x1="72" y1="-54" x2="144.5" y2="-54"/>
			<line class="st1" x1="72" y1="-68.4" x2="144.5" y2="-68.4"/>
		</g>
		<g>
			<line class="st1" x1="0" y1="-3.6" x2="72.5" y2="-3.6"/>
			<line class="st1" x1="0" y1="-18" x2="72.5" y2="-18"/>
			<line class="st1" x1="0" y1="-32.4" x2="72.5" y2="-32.4"/>
			<line class="st1" x1="0" y1="-46.8" x2="72.5" y2="-46.8"/>
			<line class="st1" x1="0" y1="-61.2" x2="72.5" y2="-61.2"/>
			<line class="st1" x1="0" y1="-10.8" x2="72.5" y2="-10.8"/>
			<line class="st1" x1="0" y1="-25.2" x2="72.5" y2="-25.2"/>
			<line class="st1" x1="0" y1="-39.6" x2="72.5" y2="-39.6"/>
			<line class="st1" x1="0" y1="-54" x2="72.5" y2="-54"/>
			<line class="st1" x1="0" y1="-68.4" x2="72.5" y2="-68.4"/>
		</g>
	</g>
</pattern>
<g id="Layer_2" class="st2">
	<rect id="XMLID_1_" class="st3" width="640" height="300"/>
</g>
<g id="Layer_3">
	<g id="XMLID_2_">
		<rect id="XMLID_29_" x="17.7" y="17.2" class="st0" width="604.7" height="260.5"/>
		<path id="XMLID_4_" class="st4" d="M54.9,23.5h29.7v81.5h50.1v23.5H54.9V23.5z"/>
		<path id="XMLID_6_" class="st4" d="M230.7,105.5v23h-84.3v-105h82.4v23h-53v17.7h46.6v22.2h-46.6v19.2H230.7z"/>
		<path id="XMLID_8_" class="st4" d="M259.3,127.4c-8-2.1-14.5-4.9-19.5-8.4l9.8-21.9c4.7,3.1,10.1,5.6,16.3,7.5
			c6.2,1.9,12.3,2.9,18.3,2.9c11.4,0,17.1-2.9,17.1-8.5c0-3-1.6-5.2-4.9-6.7c-3.3-1.4-8.5-3-15.7-4.6c-7.9-1.7-14.5-3.5-19.8-5.5
			c-5.3-2-9.9-5.1-13.6-9.4c-3.8-4.3-5.7-10.1-5.7-17.4c0-6.4,1.7-12.2,5.3-17.3c3.5-5.1,8.7-9.2,15.7-12.2c6.9-3,15.5-4.5,25.6-4.5
			c6.9,0,13.7,0.8,20.4,2.3c6.7,1.6,12.6,3.8,17.7,6.8l-9.1,22.1c-10-5.4-19.7-8.1-29.1-8.1c-5.9,0-10.2,0.9-12.9,2.6
			c-2.7,1.8-4.1,4-4.1,6.8c0,2.8,1.6,4.9,4.8,6.3c3.2,1.4,8.3,2.9,15.4,4.4c8,1.7,14.6,3.5,19.9,5.5c5.3,1.9,9.8,5.1,13.7,9.3
			c3.8,4.3,5.8,10,5.8,17.3c0,6.3-1.8,12-5.3,17.1c-3.5,5.1-8.8,9.2-15.8,12.2c-7,3-15.5,4.6-25.5,4.6
			C275.6,130.6,267.3,129.5,259.3,127.4z"/>
		<path id="XMLID_10_" class="st4" d="M356.4,127.4c-8-2.1-14.5-4.9-19.5-8.4l9.8-21.9c4.7,3.1,10.1,5.6,16.3,7.5
			c6.2,1.9,12.3,2.9,18.3,2.9c11.4,0,17.1-2.9,17.1-8.5c0-3-1.6-5.2-4.9-6.7c-3.3-1.4-8.5-3-15.7-4.6c-7.9-1.7-14.5-3.5-19.8-5.5
			c-5.3-2-9.9-5.1-13.6-9.4c-3.8-4.3-5.7-10.1-5.7-17.4c0-6.4,1.7-12.2,5.3-17.3c3.5-5.1,8.7-9.2,15.7-12.2c6.9-3,15.5-4.5,25.6-4.5
			c6.9,0,13.7,0.8,20.4,2.3c6.7,1.6,12.6,3.8,17.7,6.8l-9.1,22.1c-10-5.4-19.7-8.1-29.1-8.1c-5.9,0-10.2,0.9-12.9,2.6
			c-2.7,1.8-4.1,4-4.1,6.8c0,2.8,1.6,4.9,4.8,6.3c3.2,1.4,8.3,2.9,15.4,4.4c8,1.7,14.6,3.5,19.9,5.5c5.3,1.9,9.8,5.1,13.7,9.3
			c3.8,4.3,5.8,10,5.8,17.3c0,6.3-1.8,12-5.3,17.1c-3.5,5.1-8.8,9.2-15.8,12.2c-7,3-15.5,4.6-25.5,4.6
			C372.6,130.6,364.4,129.5,356.4,127.4z"/>
		<path id="XMLID_12_" class="st4" d="M484.9,23.5h29.7v105h-29.7V23.5z"/>
		<path id="XMLID_14_" class="st4" d="M547.9,127.4c-8-2.1-14.5-4.9-19.5-8.4l9.8-21.9c4.7,3.1,10.1,5.6,16.3,7.5
			c6.2,1.9,12.3,2.9,18.3,2.9c11.4,0,17.1-2.9,17.1-8.5c0-3-1.6-5.2-4.9-6.7c-3.3-1.4-8.5-3-15.7-4.6c-7.9-1.7-14.5-3.5-19.8-5.5
			c-5.3-2-9.9-5.1-13.6-9.4c-3.8-4.3-5.7-10.1-5.7-17.4c0-6.4,1.7-12.2,5.3-17.3c3.5-5.1,8.7-9.2,15.7-12.2c6.9-3,15.5-4.5,25.6-4.5
			c6.9,0,13.7,0.8,20.4,2.3c6.7,1.6,12.6,3.8,17.7,6.8l-9.1,22.1c-10-5.4-19.7-8.1-29.1-8.1c-5.9,0-10.2,0.9-12.9,2.6
			c-2.7,1.8-4.1,4-4.1,6.8c0,2.8,1.6,4.9,4.8,6.3c3.2,1.4,8.3,2.9,15.4,4.4c8,1.7,14.6,3.5,19.9,5.5c5.3,1.9,9.8,5.1,13.7,9.3
			c3.8,4.3,5.8,10,5.8,17.3c0,6.3-1.8,12-5.3,17.1c-3.5,5.1-8.8,9.2-15.8,12.2c-7,3-15.5,4.6-25.5,4.6
			C564.2,130.6,555.9,129.5,547.9,127.4z"/>
		
			<pattern  id="XMLID_44_" xlink:href="#_x31_0_lpi_40_x25__2" patternTransform="matrix(0.7071 -0.7071 0.7071 0.7071 3352.595 -7730.3906)">
		</pattern>
		<path id="XMLID_17_" class="st5" d="M201.9,268.5l-0.3-55.7l-27,45.3h-13.2l-26.8-43.8v54.2h-27.5v-105h24.5l36.9,60.6l36-60.6
			h24.4l0.3,105H201.9z"/>
		
			<pattern  id="XMLID_45_" xlink:href="#_x31_0_lpi_40_x25__2" patternTransform="matrix(0.7071 -0.7071 0.7071 0.7071 3352.595 -7730.3906)">
		</pattern>
		<path id="XMLID_19_" class="st6" d="M273.2,263.5c-8.9-4.7-15.8-11.2-20.9-19.5c-5.1-8.3-7.6-17.6-7.6-28c0-10.4,2.5-19.7,7.6-28
			c5-8.3,12-14.8,20.9-19.5c8.8-4.7,18.8-7,29.9-7c11.1,0,21.1,2.4,29.9,7c8.8,4.7,15.8,11.2,20.8,19.5c5,8.3,7.6,17.7,7.6,28
			c0,10.4-2.5,19.8-7.6,28c-5.1,8.3-12,14.8-20.8,19.5c-8.8,4.7-18.8,7-29.9,7C292,270.5,282.1,268.2,273.2,263.5z M317.5,242.2
			c4.3-2.5,7.7-6,10.2-10.6c2.5-4.5,3.8-9.8,3.8-15.7c0-5.9-1.3-11.1-3.8-15.7c-2.5-4.5-5.9-8.1-10.2-10.6
			c-4.3-2.5-9.1-3.8-14.4-3.8c-5.3,0-10.1,1.3-14.4,3.8c-4.3,2.5-7.7,6-10.2,10.6c-2.5,4.6-3.8,9.8-3.8,15.7
			c0,5.9,1.3,11.1,3.8,15.7c2.5,4.6,5.9,8.1,10.2,10.6c4.3,2.5,9.1,3.8,14.4,3.8C308.4,246,313.2,244.7,317.5,242.2z"/>
		
			<pattern  id="XMLID_46_" xlink:href="#_x31_0_lpi_40_x25__2" patternTransform="matrix(0.7071 -0.7071 0.7071 0.7071 3352.595 -7730.3906)">
		</pattern>
		<path id="XMLID_22_" class="st7" d="M423,240.5h-16.2v27.9h-29.7v-105h48c9.5,0,17.7,1.6,24.8,4.7c7,3.1,12.4,7.6,16.2,13.5
			c3.8,5.8,5.7,12.7,5.7,20.6c0,7.6-1.8,14.2-5.3,19.9c-3.6,5.7-8.6,10.1-15.2,13.3l22.7,33H442L423,240.5z M437.1,190.9
			c-3.1-2.7-7.7-4-13.8-4h-16.5v30.8h16.5c6.1,0,10.7-1.3,13.8-4c3.1-2.6,4.7-6.4,4.7-11.3C441.7,197.4,440.2,193.6,437.1,190.9z"/>
		
			<pattern  id="XMLID_47_" xlink:href="#_x31_0_lpi_40_x25__2" patternTransform="matrix(0.7071 -0.7071 0.7071 0.7071 3352.595 -7730.3906)">
		</pattern>
		<path id="XMLID_25_" class="st8" d="M572.4,245.5v23h-84.3v-105h82.3v23h-52.9v17.7h46.6v22.2h-46.6v19.2H572.4z"/>
		
			<pattern  id="XMLID_48_" xlink:href="#_x31_0_lpi_40_x25__2" patternTransform="matrix(0.7071 -0.7071 0.7071 0.7071 3352.595 -7730.3906)">
		</pattern>
		<path id="XMLID_27_" class="st9" d="M588.9,265c-3.3-3.2-5-7.2-5-12.1c0-5,1.6-9,4.9-12.2c3.2-3.1,7.3-4.7,12.2-4.7
			c5,0,9.1,1.6,12.3,4.7c3.2,3.1,4.8,7.2,4.8,12.2c0,4.9-1.6,9-4.9,12.1c-3.3,3.2-7.3,4.8-12.2,4.8
			C596.2,269.8,592.2,268.2,588.9,265z"/>
	</g>
	<g id="XMLID_3_">
	</g>
	<g id="XMLID_16_">
	</g>
	<g id="XMLID_30_">
	</g>
	<g id="XMLID_31_">
	</g>
	<g id="XMLID_32_">
	</g>
	<g id="XMLID_33_">
	</g>
	<g id="XMLID_34_">
	</g>
	<g id="XMLID_35_">
	</g>
	<g id="XMLID_36_">
	</g>
	<g id="XMLID_37_">
	</g>
	<g id="XMLID_38_">
	</g>
	<g id="XMLID_39_">
	</g>
	<g id="XMLID_40_">
	</g>
	<g id="XMLID_41_">
	</g>
	<g id="XMLID_42_">
	</g>
</g>
</svg>
